<svg width="25" height="21" viewBox="0 0 25 21" fill="none" xmlns="http://www.w3.org/2000/svg">
<path fill-rule="evenodd" clip-rule="evenodd" d="M6.58618 5.94727C6.58618 4.29041 7.92933 2.94727 9.58618 2.94727C11.243 2.94727 12.5862 4.29041 12.5862 5.94727C12.5862 7.60412 11.243 8.94727 9.58618 8.94727C7.92933 8.94727 6.58618 7.60412 6.58618 5.94727ZM9.58618 0.947266C6.82476 0.947266 4.58618 3.18584 4.58618 5.94727C4.58618 8.70869 6.82476 10.9473 9.58618 10.9473C12.3476 10.9473 14.5862 8.70869 14.5862 5.94727C14.5862 3.18584 12.3476 0.947266 9.58618 0.947266ZM5.58618 12.9473C4.2601 12.9473 2.98833 13.4741 2.05065 14.4117C1.11297 15.3494 0.586182 16.6212 0.586182 17.9473V19.9473C0.586182 20.4995 1.0339 20.9473 1.58618 20.9473C2.13847 20.9473 2.58618 20.4995 2.58618 19.9473V17.9473C2.58618 17.1516 2.90225 16.3886 3.46486 15.8259C4.02747 15.2633 4.79053 14.9473 5.58618 14.9473H13.5862C14.3818 14.9473 15.1449 15.2633 15.7075 15.8259C16.2701 16.3886 16.5862 17.1516 16.5862 17.9473V19.9473C16.5862 20.4995 17.0339 20.9473 17.5862 20.9473C18.1385 20.9473 18.5862 20.4995 18.5862 19.9473V17.9473C18.5862 16.6212 18.0594 15.3494 17.1217 14.4117C16.184 13.4741 14.9123 12.9473 13.5862 12.9473H5.58618ZM19.6179 13.8264C19.756 13.2917 20.3014 12.9701 20.8362 13.1082C21.9088 13.3851 22.8591 14.0105 23.5379 14.8861C24.2166 15.7616 24.5854 16.8378 24.5862 17.9457V19.9464C24.5862 20.4987 24.1385 20.9464 23.5862 20.9464C23.0339 20.9464 22.5862 20.4987 22.5862 19.9464V17.9472C22.5856 17.2826 22.3644 16.6367 21.9572 16.1114C21.55 15.5861 20.9798 15.2108 20.3362 15.0447C19.8014 14.9066 19.4799 14.3612 19.6179 13.8264ZM16.8342 1.10766C16.2992 0.970674 15.7544 1.29335 15.6174 1.82837C15.4804 2.3634 15.8031 2.90817 16.3381 3.04516C16.9834 3.21039 17.5554 3.58569 17.9639 4.1119C18.3723 4.6381 18.594 5.28529 18.594 5.95141C18.594 6.61754 18.3723 7.26472 17.9639 7.79093C17.5554 8.31714 16.9834 8.69244 16.3381 8.85766C15.8031 8.99465 15.4804 9.53942 15.6174 10.0745C15.7544 10.6095 16.2992 10.9322 16.8342 10.7952C17.9097 10.5198 18.863 9.89429 19.5438 9.01727C20.2245 8.14026 20.594 7.06163 20.594 5.95141C20.594 4.8412 20.2245 3.76256 19.5438 2.88555C18.863 2.00854 17.9097 1.38304 16.8342 1.10766Z" fill="#0083BA"/>
</svg>
