<svg width="12" height="13" viewBox="0 0 12 13" fill="none" xmlns="http://www.w3.org/2000/svg">
<path d="M5.66632 0.904216C5.32161 0.904216 5.04318 1.18264 5.04318 1.52735L5.03876 5.84512L0.716574 5.84512C0.371859 5.84512 0.0934358 6.12355 0.0934358 6.46826C0.0934358 6.81298 0.371859 7.0914 0.716574 7.0914L5.03876 7.0914L5.03876 11.4136C5.03876 11.7583 5.31719 12.0367 5.6619 12.0367C6.00662 12.0367 6.28504 11.7583 6.28504 11.4136L6.28504 7.0914L10.6072 7.0914C10.9519 7.0914 11.2304 6.81298 11.2304 6.46826C11.2304 6.12355 10.9519 5.84512 10.6072 5.84512L6.28504 5.84512L6.28504 1.52293C6.28504 1.18706 6.0022 0.904216 5.66632 0.904216Z" fill="#0083BA"/>
</svg>
