<svg width="22" height="22" viewBox="0 0 22 22" fill="none" xmlns="http://www.w3.org/2000/svg">
<path d="M11.0002 3.66561C15.0427 3.66561 18.3335 6.95644 18.3335 10.9989C18.3335 15.0414 15.0427 18.3323 11.0002 18.3323C6.95766 18.3323 3.66683 15.0414 3.66683 10.9989C3.66683 6.95644 6.95766 3.66561 11.0002 3.66561ZM11.0002 1.83228C5.94016 1.83228 1.8335 5.93894 1.8335 10.9989C1.8335 16.0589 5.94016 20.1656 11.0002 20.1656C16.0602 20.1656 20.1668 16.0589 20.1668 10.9989C20.1668 5.93894 16.0602 1.83228 11.0002 1.83228ZM11.9168 10.9989V8.24894C11.9168 7.74478 11.5043 7.33228 11.0002 7.33228C10.496 7.33228 10.0835 7.74478 10.0835 8.24894V10.9989H8.44266C8.03016 10.9989 7.8285 11.4939 8.12183 11.7781L10.6793 14.3356C10.8627 14.5189 11.1468 14.5189 11.3302 14.3356L13.8877 11.7781C14.1718 11.4939 13.9702 10.9989 13.5668 10.9989H11.9168Z" fill="white"/>
</svg>
