<svg width="23" height="23" viewBox="0 0 23 23" fill="none" xmlns="http://www.w3.org/2000/svg">
<path fill-rule="evenodd" clip-rule="evenodd" d="M11.5862 2.94727C6.61562 2.94727 2.58618 6.9767 2.58618 11.9473C2.58618 16.9178 6.61562 20.9473 11.5862 20.9473C16.5567 20.9473 20.5862 16.9178 20.5862 11.9473C20.5862 6.9767 16.5567 2.94727 11.5862 2.94727ZM0.586182 11.9473C0.586182 5.87213 5.51105 0.947266 11.5862 0.947266C17.6613 0.947266 22.5862 5.87213 22.5862 11.9473C22.5862 18.0224 17.6613 22.9473 11.5862 22.9473C5.51105 22.9473 0.586182 18.0224 0.586182 11.9473Z" fill="#0083BA"/>
<path fill-rule="evenodd" clip-rule="evenodd" d="M11.5862 4.94727C12.1385 4.94727 12.5862 5.39498 12.5862 5.94727V11.3292L16.0334 13.0528C16.5274 13.2998 16.7276 13.9005 16.4806 14.3945C16.2336 14.8885 15.6329 15.0887 15.139 14.8417L11.139 12.8417C10.8002 12.6723 10.5862 12.326 10.5862 11.9473V5.94727C10.5862 5.39498 11.0339 4.94727 11.5862 4.94727Z" fill="#0083BA"/>
</svg>
