<svg width="13" height="13" viewBox="0 0 13 13" fill="none" xmlns="http://www.w3.org/2000/svg">
<path d="M1.44444 0C0.646389 0 0 0.646389 0 1.44444V11.5556C0 12.3536 0.646389 13 1.44444 13H11.5556C12.3536 13 13 12.3536 13 11.5556V1.44444C13 0.646389 12.3536 0 11.5556 0H1.44444ZM1.44444 1.44444H11.5556V11.5556H1.44444V1.44444ZM3.45171 2.39518C2.83277 2.39518 2.46148 2.76725 2.46148 3.2627C2.46148 3.75814 2.83281 4.1288 3.38965 4.1288C4.00859 4.1288 4.37988 3.75814 4.37988 3.2627C4.37988 2.76725 4.00855 2.39518 3.45171 2.39518ZM2.51085 5.05556V10.1111H4.33333V5.05556H2.51085ZM5.83702 5.05556V10.1111H7.6595V7.34776C7.6595 6.52515 8.24641 6.4069 8.42263 6.4069C8.59886 6.4069 9.0701 6.58365 9.0701 7.34776V10.1111H10.8333V7.34776C10.8333 5.76104 10.1283 5.05556 9.24642 5.05556C8.36459 5.05556 7.89423 5.34918 7.6595 5.76085V5.05556H5.83702Z" fill="#6E6B7B"/>
</svg>
