<svg width="25" height="25" viewBox="0 0 25 25" fill="none" xmlns="http://www.w3.org/2000/svg">
<path fill-rule="evenodd" clip-rule="evenodd" d="M4.18618 5.3109C3.52344 5.3109 2.98618 5.79932 2.98618 6.40181V21.6745C2.98618 22.277 3.52344 22.7654 4.18618 22.7654H20.9862C21.6489 22.7654 22.1862 22.277 22.1862 21.6745V6.40181C22.1862 5.79932 21.6489 5.3109 20.9862 5.3109H4.18618ZM0.586182 6.40181C0.586182 4.59433 2.19796 3.12908 4.18618 3.12908H20.9862C22.9744 3.12908 24.5862 4.59433 24.5862 6.40181V21.6745C24.5862 23.482 22.9744 24.9473 20.9862 24.9473H4.18618C2.19796 24.9473 0.586182 23.482 0.586182 21.6745V6.40181Z" fill="#0083BA"/>
<path fill-rule="evenodd" clip-rule="evenodd" d="M17.3862 0.947266C18.0489 0.947266 18.5862 1.43568 18.5862 2.03817V6.40181C18.5862 7.0043 18.0489 7.49272 17.3862 7.49272C16.7234 7.49272 16.1862 7.0043 16.1862 6.40181V2.03817C16.1862 1.43568 16.7234 0.947266 17.3862 0.947266Z" fill="#0083BA"/>
<path fill-rule="evenodd" clip-rule="evenodd" d="M7.78618 0.947266C8.44892 0.947266 8.98618 1.43568 8.98618 2.03817V6.40181C8.98618 7.0043 8.44892 7.49272 7.78618 7.49272C7.12344 7.49272 6.58618 7.0043 6.58618 6.40181V2.03817C6.58618 1.43568 7.12344 0.947266 7.78618 0.947266Z" fill="#0083BA"/>
<path fill-rule="evenodd" clip-rule="evenodd" d="M0.586182 10.7654C0.586182 10.163 1.12344 9.67454 1.78618 9.67454H23.3862C24.0489 9.67454 24.5862 10.163 24.5862 10.7654C24.5862 11.3679 24.0489 11.8564 23.3862 11.8564H1.78618C1.12344 11.8564 0.586182 11.3679 0.586182 10.7654Z" fill="#0083BA"/>
</svg>
