<svg width="18" height="18" viewBox="0 0 18 18" fill="none" xmlns="http://www.w3.org/2000/svg">
<path fill-rule="evenodd" clip-rule="evenodd" d="M9.10075 2.47331C5.57993 2.47331 2.72575 5.32749 2.72575 8.84831C2.72575 12.3691 5.57993 15.2233 9.10075 15.2233C12.6216 15.2233 15.4757 12.3691 15.4757 8.84831C15.4757 5.32749 12.6216 2.47331 9.10075 2.47331ZM1.30908 8.84831C1.30908 4.54509 4.79753 1.05664 9.10075 1.05664C13.404 1.05664 16.8924 4.54509 16.8924 8.84831C16.8924 13.1515 13.404 16.64 9.10075 16.64C4.79753 16.64 1.30908 13.1515 1.30908 8.84831Z" fill="#555555"/>
<path fill-rule="evenodd" clip-rule="evenodd" d="M9.10075 3.88997C9.49195 3.88997 9.80908 4.20711 9.80908 4.59831V8.41053L12.2509 9.63142C12.6008 9.80637 12.7426 10.2318 12.5676 10.5817C12.3927 10.9317 11.9672 11.0735 11.6173 10.8985L8.78397 9.48186C8.544 9.36187 8.39242 9.1166 8.39242 8.84831V4.59831C8.39242 4.20711 8.70955 3.88997 9.10075 3.88997Z" fill="#555555"/>
</svg>
