<svg width="16" height="16" viewBox="0 0 16 16" fill="none" xmlns="http://www.w3.org/2000/svg">
<path d="M7.99951 0.5C3.85951 0.5 0.499512 3.86 0.499512 8C0.499512 12.14 3.85951 15.5 7.99951 15.5C12.1395 15.5 15.4995 12.14 15.4995 8C15.4995 3.86 12.1395 0.5 7.99951 0.5ZM1.99951 8C1.99951 4.685 4.68451 2 7.99951 2C9.38701 2 10.662 2.4725 11.6745 3.2675L3.26701 11.675C2.47201 10.6625 1.99951 9.3875 1.99951 8ZM7.99951 14C6.61201 14 5.33701 13.5275 4.32451 12.7325L12.732 4.325C13.527 5.3375 13.9995 6.6125 13.9995 8C13.9995 11.315 11.3145 14 7.99951 14Z" fill="#FF6584"/>
</svg>
