<svg width="17" height="17" viewBox="0 0 17 17" fill="none" xmlns="http://www.w3.org/2000/svg">
<path fill-rule="evenodd" clip-rule="evenodd" d="M2.47286 3.58276C2.03065 3.58276 1.67217 3.8983 1.67217 4.28753V14.1543C1.67217 14.5436 2.03065 14.8591 2.47286 14.8591H13.6825C14.1247 14.8591 14.4832 14.5436 14.4832 14.1543V4.28753C14.4832 3.8983 14.1247 3.58276 13.6825 3.58276H2.47286ZM0.0708008 4.28753C0.0708008 3.11983 1.14624 2.17322 2.47286 2.17322H13.6825C15.0091 2.17322 16.0845 3.11983 16.0845 4.28753V14.1543C16.0845 15.322 15.0091 16.2686 13.6825 16.2686H2.47286C1.14624 16.2686 0.0708008 15.322 0.0708008 14.1543V4.28753Z" fill="#555555"/>
<path fill-rule="evenodd" clip-rule="evenodd" d="M11.2804 0.763672C11.7226 0.763672 12.0811 1.07921 12.0811 1.46844V4.28753C12.0811 4.67676 11.7226 4.9923 11.2804 4.9923C10.8382 4.9923 10.4797 4.67676 10.4797 4.28753V1.46844C10.4797 1.07921 10.8382 0.763672 11.2804 0.763672Z" fill="#555555"/>
<path fill-rule="evenodd" clip-rule="evenodd" d="M4.87492 0.763672C5.31713 0.763672 5.67561 1.07921 5.67561 1.46844V4.28753C5.67561 4.67676 5.31713 4.9923 4.87492 4.9923C4.43271 4.9923 4.07423 4.67676 4.07423 4.28753V1.46844C4.07423 1.07921 4.43271 0.763672 4.87492 0.763672Z" fill="#555555"/>
<path fill-rule="evenodd" clip-rule="evenodd" d="M0.0708008 7.10662C0.0708008 6.71738 0.42928 6.40184 0.871487 6.40184H15.2838C15.7261 6.40184 16.0845 6.71738 16.0845 7.10662C16.0845 7.49585 15.7261 7.81139 15.2838 7.81139H0.871487C0.42928 7.81139 0.0708008 7.49585 0.0708008 7.10662Z" fill="#555555"/>
</svg>
