<svg xmlns="http://www.w3.org/2000/svg" xmlns:xlink="http://www.w3.org/1999/xlink" id="Layer_1" x="0px" y="0px" viewBox="0 0 73.8 35.3" style="enable-background:new 0 0 73.8 35.3;" xml:space="preserve">
<style type="text/css">
	.st0{clip-path:url(#SVGID_2_);}
	.st1{clip-path:url(#SVGID_4_);fill:#0883BC;}
	.st2{clip-path:url(#SVGID_6_);fill:none;stroke:#FFFFFF;stroke-width:0.5;stroke-miterlimit:10;}
	.st3{clip-path:url(#SVGID_8_);}
	.st4{clip-path:url(#SVGID_10_);fill:#FFFFFF;}
	.st5{clip-path:url(#SVGID_12_);}
	.st6{clip-path:url(#SVGID_14_);fill:#FEE000;}
	.st7{clip-path:url(#SVGID_16_);fill:#939393;}
	.st8{clip-path:url(#SVGID_16_);fill:#373636;}
	.st9{fill:none;}
</style>
<g>
	<defs>
		<path id="SVGID_1_" d="M62,4.7c-0.1-0.1-0.2-0.1-0.3-0.2c-4.3-2.2-8.7-4.5-13-3c-4.3,1.4-5.9,3.9-8.2,8c-2.5,4.6-1.2,7.8,0.5,12.3    c1.5,3.8,1.9,8.5,5.9,10.5c4.6,2.4,9.5,2,14.1,0.3c4-1.4,5.6-3.3,7.3-7.2c2-4.5,3.7-6,2.3-10.3C69.1,11,66.2,6.9,62,4.7z"></path>
	</defs>
	<clipPath id="SVGID_2_">
		<use xlink:href="#SVGID_1_" style="overflow:visible;"></use>
	</clipPath>
	<g class="st0">
		<defs>
			<rect id="SVGID_3_" x="-262" y="-365" width="595" height="572"></rect>
		</defs>
		<clipPath id="SVGID_4_">
			<use xlink:href="#SVGID_3_" style="overflow:visible;"></use>
		</clipPath>
		<rect x="34" y="-4" class="st1" width="42" height="43"></rect>
	</g>
</g>
<g>
	<defs>
		<rect id="SVGID_5_" x="-262" y="-365" width="595" height="572"></rect>
	</defs>
	<clipPath id="SVGID_6_">
		<use xlink:href="#SVGID_5_" style="overflow:visible;"></use>
	</clipPath>
	<path class="st2" d="M52.1,28c22.3,0.3,12-26.2-2.8-20.2c-11.6,4.7-7.2,17.6,0.6,23c10.2,7,27.1-14.1,9.4-25.8   c-2.1-1.4-4.8-1.6-7.3-1.6c-15,0-17.4,25-3.9,30.2C68.1,41.2,82.7,10,59.5,1.2c-1.7-0.7-3.6-0.6-5.4-0.9"></path>
</g>
<g>
	<defs>
		<circle id="SVGID_7_" cx="52" cy="28" r="1"></circle>
	</defs>
	<clipPath id="SVGID_8_">
		<use xlink:href="#SVGID_7_" style="overflow:visible;"></use>
	</clipPath>
	<g class="st3">
		<defs>
			<rect id="SVGID_9_" x="-262" y="-365" width="595" height="572"></rect>
		</defs>
		<clipPath id="SVGID_10_">
			<use xlink:href="#SVGID_9_" style="overflow:visible;"></use>
		</clipPath>
		<rect x="46" y="22" class="st4" width="12" height="12"></rect>
	</g>
</g>
<g>
	<defs>
		<circle id="SVGID_11_" cx="39" cy="31" r="1"></circle>
	</defs>
	<clipPath id="SVGID_12_">
		<use xlink:href="#SVGID_11_" style="overflow:visible;"></use>
	</clipPath>
	<g class="st5">
		<defs>
			<rect id="SVGID_13_" x="-262" y="-365" width="595" height="572"></rect>
		</defs>
		<clipPath id="SVGID_14_">
			<use xlink:href="#SVGID_13_" style="overflow:visible;"></use>
		</clipPath>
		<rect x="33" y="25" class="st6" width="12" height="12"></rect>
	</g>
</g>
<g>
	<defs>
		<rect id="SVGID_15_" x="-262" y="-365" width="595" height="572"></rect>
	</defs>
	<clipPath id="SVGID_16_">
		<use xlink:href="#SVGID_15_" style="overflow:visible;"></use>
	</clipPath>
	<path class="st7" d="M20.7,31v1h-0.1c-0.2,0-0.4,0-0.6-0.1c-0.2-0.1-0.3-0.2-0.5-0.4l-0.6,0.1c0,0-0.1,0-0.1,0   c-0.2,0-0.4-0.1-0.7-0.2c-0.2-0.2-0.4-0.4-0.4-0.6c0-0.1-0.1-0.2-0.1-0.4c0-0.3,0.1-0.5,0.2-0.7s0.3-0.4,0.6-0.4l0.7-0.2v-0.2h0.9   v1.9c0,0.1,0,0.2,0.1,0.3c0.1,0.1,0.2,0.1,0.4,0.1H20.7z M18.8,30.6c0.1,0,0.2,0,0.4-0.1v-0.7L18.7,30c-0.1,0-0.1,0.1-0.2,0.1   c0,0.1-0.1,0.1-0.1,0.2c0,0,0,0.1,0,0.1c0,0.1,0,0.1,0.1,0.2C18.7,30.6,18.8,30.6,18.8,30.6L18.8,30.6z M22.5,31v1h-1.9v-1H22.5z    M25.9,30.3c0,0.2,0.1,0.3,0.1,0.5c0,0.2-0.1,0.4-0.1,0.6c-0.1,0.2-0.2,0.3-0.4,0.4C25.2,31.9,25,32,24.7,32   c-0.3,0-0.5-0.1-0.7-0.3c-0.2,0.2-0.4,0.3-0.7,0.3c-0.3,0-0.5-0.1-0.7-0.3c-0.2,0.2-0.5,0.3-0.7,0.3h-0.3v-1h0.3   c0.1,0,0.2,0,0.3-0.1c0,0,0.1-0.1,0.1-0.2V30H23v0.7c0,0.1,0,0.1,0.1,0.2c0,0,0.1,0.1,0.2,0.1c0.1,0,0.2,0,0.3-0.1   c0,0,0.1-0.1,0.1-0.2v0V30h0.8v0.7v0c0,0.1,0,0.1,0.1,0.2c0,0,0.1,0.1,0.2,0.1c0.1,0,0.2,0,0.3-0.1c0.1,0,0.1-0.1,0.1-0.2   c0-0.1,0-0.1,0-0.2l-0.2-0.9l0.8-0.2L25.9,30.3L25.9,30.3z M26,32.6c0.3-0.1,0.6-0.2,0.7-0.2c0.1-0.1,0.2-0.1,0.3-0.2   c0.1-0.1,0.1-0.2,0.1-0.3c0,0,0-0.1,0-0.1l-0.2-1.7l0.8-0.1l0.2,1.7c0,0.1,0,0.2,0,0.3c0,0.3-0.1,0.5-0.2,0.7   c-0.1,0.2-0.3,0.3-0.6,0.5c-0.2,0.1-0.6,0.2-1,0.4L26,32.6L26,32.6z M31.9,31v1h-0.3c-0.3,0-0.5-0.1-0.7-0.3   c-0.2,0.2-0.5,0.3-0.8,0.3h-0.4c-0.2,0-0.4,0-0.6-0.1c-0.2-0.1-0.3-0.2-0.4-0.3c-0.1-0.1-0.1-0.3-0.1-0.4c0-0.1,0-0.2,0-0.4h0.8   l0,0.2c0,0,0,0.1,0,0.1c0,0,0.1,0,0.1,0h0.7c0.2,0,0.3-0.1,0.2-0.2l0-0.1L30,29l0.8-0.2l0.4,1.8c0,0.1,0.1,0.2,0.1,0.3   c0,0.1,0.1,0.1,0.1,0.1c0,0,0.1,0,0.1,0H31.9z M33.7,31v1h-1.9v-1H33.7z M35.1,29.5c0.2,0.1,0.3,0.3,0.5,0.5   c0.1,0.2,0.2,0.4,0.2,0.7c0,0.3-0.1,0.6-0.2,0.9c-0.1,0.1-0.2,0.3-0.3,0.3C35,32,34.9,32,34.7,32c-0.1,0-0.3,0-0.4-0.1l-0.6-0.3   c-0.2,0.3-0.5,0.4-0.9,0.4h-0.1v-1h0.1c0.1,0,0.2,0,0.2-0.1c0.1,0,0.1-0.1,0.2-0.1l0.5-0.9c0.1-0.2,0.2-0.3,0.4-0.4   c0.2-0.1,0.3-0.2,0.5-0.2C34.8,29.4,34.9,29.4,35.1,29.5L35.1,29.5z M34.8,31.1c0.1-0.2,0.1-0.4,0.1-0.5c0-0.1-0.1-0.3-0.2-0.3   c0,0-0.1,0-0.1,0c-0.1,0-0.1,0-0.2,0.1c-0.1,0.1-0.1,0.1-0.2,0.2l-0.1,0.2L34.8,31.1L34.8,31.1z"></path>
	<path class="st8" d="M7.9,23c-0.6,0.1-1.1,0.2-1.5,0.2c-0.9,0-1.7-0.2-2.4-0.6c-0.7-0.4-1.2-1-1.5-1.7s-0.5-1.6-0.5-2.6   c0-1.1,0.2-2.3,0.7-3.5l1.8,0.7c-0.4,1.1-0.6,2-0.6,2.9c0,0.9,0.2,1.6,0.7,2.1c0.4,0.5,1.1,0.7,1.9,0.7c0.4,0,0.8,0,1.1-0.1   c0.8-0.2,1.4-0.3,1.7-0.5c0.4-0.1,0.7-0.3,0.9-0.5c0.2-0.2,0.3-0.5,0.3-1c0-0.1,0-0.2,0-0.5l-0.7-4.7l1.8-0.3   c0.4,2.6,0.6,4.2,0.7,4.7c0,0.4,0.1,0.7,0.1,0.9c0,0.8-0.2,1.4-0.5,1.9c-0.3,0.5-0.8,0.9-1.5,1.2C9.6,22.5,8.8,22.8,7.9,23L7.9,23z    M5.4,13.6l1.4-1.5l1.4,1.5l-1.4,1.4L5.4,13.6z M15.7,7.4L16.1,19l-1.9,0.1L13.8,7.5L15.7,7.4z M17.3,21.3c1-0.3,1.6-0.5,2-0.6   c0.4-0.1,0.7-0.3,0.9-0.6c0.2-0.2,0.3-0.6,0.3-1c0-0.1,0-0.2,0-0.4l-0.7-4.9l1.8-0.3l0.7,4.9c0,0.3,0.1,0.5,0.1,0.8   c0,0.8-0.2,1.4-0.6,1.9c-0.4,0.5-0.9,0.9-1.5,1.2c-0.7,0.3-1.5,0.6-2.6,0.9L17.3,21.3L17.3,21.3z M17.7,11.1L19,9.8l1.3,1.3   L19,12.4L17.7,11.1z M19.6,8.8l1.1-1.1l1.1,1.1l-1.1,1.1L19.6,8.8z M21,11.1l1.3-1.3l1.3,1.3l-1.3,1.3L21,11.1z M32.3,19h-0.8   c0,0.9-0.1,1.6-0.5,2.2c-0.4,0.5-1,0.9-1.8,1.3c-0.8,0.3-2,0.6-3.5,1l-0.4-2c1.4-0.3,2.4-0.5,2.9-0.7c0.5-0.2,0.9-0.4,1.1-0.6   c0.2-0.2,0.3-0.6,0.3-1h-2c-1,0-1.7-0.3-2.3-0.9c-0.6-0.6-0.9-1.4-0.9-2.4c0-0.6,0.1-1.2,0.4-1.8c0.3-0.6,0.7-1,1.2-1.4   c0.5-0.3,1.1-0.5,1.7-0.5c0.9,0,1.7,0.3,2.3,1c0.6,0.7,1,1.6,1.1,2.7l0.1,1.1h1V19z M26.4,15.7c0,0.4,0.1,0.7,0.3,0.9   c0.2,0.2,0.5,0.3,1,0.3h1.7L29.3,16c-0.1-0.6-0.2-1.1-0.5-1.4c-0.3-0.3-0.6-0.5-1-0.5c-0.4,0-0.8,0.2-1,0.5   C26.5,14.9,26.4,15.2,26.4,15.7L26.4,15.7z M37.4,16.9V19h-5.3v-2.1H37.4z M42.3,16.9V19h-5.3v-2.1H42.3z M47.2,16.9V19H42v-2.1   H47.2z M52.2,16.9V19h-5.3v-2.1H52.2z M57,14.6c0.1,0.4,0.2,0.8,0.2,1.2c0,1-0.3,1.7-1,2.3c-0.6,0.6-1.5,0.8-2.5,0.8h-1.9v-2.1h1.9   c0.5,0,0.9-0.1,1.2-0.2c0.3-0.2,0.4-0.4,0.4-0.8c0-0.2,0-0.4-0.1-0.7l-0.7-2.5l1.8-0.5L57,14.6L57,14.6z M54.2,20l1.4,1.4l-1.4,1.4   l-1.4-1.4L54.2,20z"></path>
</g>
<rect id="XMLID_1_" class="st9" width="73.8" height="35.3"></rect>
</svg>