<svg width="25" height="25" viewBox="0 0 25 25" fill="none" xmlns="http://www.w3.org/2000/svg">
<g clip-path="url(#clip0)">
<path fill-rule="evenodd" clip-rule="evenodd" d="M12.5862 2.44727C10.4644 2.44727 8.42962 3.29012 6.92933 4.79041C5.42904 6.2907 4.58618 8.32553 4.58618 10.4473C4.58618 13.5453 6.60192 16.5515 8.81213 18.8845C9.89679 20.0294 10.9848 20.9667 11.8029 21.6181C12.1073 21.8605 12.3732 22.0625 12.5862 22.2198C12.7992 22.0625 13.0651 21.8605 13.3695 21.6181C14.1875 20.9667 15.2756 20.0294 16.3602 18.8845C18.5704 16.5515 20.5862 13.5453 20.5862 10.4473C20.5862 8.32553 19.7433 6.2907 18.243 4.79041C16.7427 3.29012 14.7079 2.44727 12.5862 2.44727ZM12.5862 23.4473C12.0315 24.2793 12.0312 24.2791 12.0309 24.279L12.0281 24.277L12.0214 24.2726L11.9985 24.2571C11.979 24.2438 11.9513 24.2249 11.9157 24.2003C11.8447 24.1511 11.7426 24.0794 11.614 23.9865C11.3567 23.8007 10.9925 23.5295 10.557 23.1827C9.68751 22.4903 8.52557 21.4901 7.36023 20.26C5.07044 17.843 2.58618 14.3492 2.58618 10.4473C2.58618 7.7951 3.63975 5.25156 5.51511 3.3762C7.39048 1.50083 9.93402 0.447266 12.5862 0.447266C15.2383 0.447266 17.7819 1.50083 19.6572 3.3762C21.5326 5.25156 22.5862 7.7951 22.5862 10.4473C22.5862 14.3492 20.1019 17.843 17.8121 20.26C16.6468 21.4901 15.4848 22.4903 14.6154 23.1827C14.1798 23.5295 13.8156 23.8007 13.5584 23.9865C13.4297 24.0794 13.3277 24.1511 13.2566 24.2003C13.2211 24.2249 13.1933 24.2438 13.1739 24.2571L13.1509 24.2726L13.1443 24.277L13.1422 24.2785C13.1419 24.2786 13.1409 24.2793 12.5862 23.4473ZM12.5862 23.4473L13.1409 24.2793C12.805 24.5032 12.3668 24.5029 12.0309 24.279L12.5862 23.4473Z" fill="#0083BA"/>
<path fill-rule="evenodd" clip-rule="evenodd" d="M12.5862 8.44727C11.4816 8.44727 10.5862 9.3427 10.5862 10.4473C10.5862 11.5518 11.4816 12.4473 12.5862 12.4473C13.6908 12.4473 14.5862 11.5518 14.5862 10.4473C14.5862 9.3427 13.6908 8.44727 12.5862 8.44727ZM8.58618 10.4473C8.58618 8.23813 10.377 6.44727 12.5862 6.44727C14.7953 6.44727 16.5862 8.23813 16.5862 10.4473C16.5862 12.6564 14.7953 14.4473 12.5862 14.4473C10.377 14.4473 8.58618 12.6564 8.58618 10.4473Z" fill="#0083BA"/>
</g>
<defs>
<clipPath id="clip0">
<rect width="24" height="24" fill="white" transform="translate(0.586182 0.447266)"/>
</clipPath>
</defs>
</svg>
