<svg width="289" height="47" viewBox="0 0 289 47" fill="none" xmlns="http://www.w3.org/2000/svg">
<path fill-rule="evenodd" clip-rule="evenodd" d="M30.3004 10.0002C30.1936 9.94527 30.0867 9.89025 29.9799 9.83521C25.6387 7.5984 21.3154 5.33904 16.9338 6.79554C12.6595 8.21636 11.002 10.7067 8.74245 14.8177C6.23375 19.382 7.50753 22.6622 9.24226 27.142C10.7111 30.9352 11.1141 35.6145 15.0961 37.6626C19.7457 40.0542 24.6155 39.6192 29.2056 37.9866C33.1892 36.5698 34.7755 34.7338 36.545 30.7498C38.5236 26.2953 40.2255 24.7791 38.8175 20.4989C37.4568 16.3623 34.5687 12.1957 30.3004 10.0002Z" fill="#FF4141"/>
<path d="M20.4339 33.326C42.7777 33.6299 32.4222 7.09042 17.6103 13.1082C6.03549 17.8108 10.4082 30.6966 18.2309 36.0851C28.4635 43.1338 45.3267 21.9521 27.6457 10.2593C25.551 8.87398 22.8036 8.66349 20.3046 8.65833C5.25596 8.6273 2.86276 33.7 16.3681 38.8656C36.4245 46.5369 50.9873 15.377 27.7977 6.50032C26.0904 5.84679 24.2007 5.88249 22.4022 5.57357" stroke="white" stroke-width="0.5"/>
<path fill-rule="evenodd" clip-rule="evenodd" d="M20.335 34.334C20.8872 34.334 21.335 33.8863 21.335 33.334C21.335 32.7817 20.8872 32.334 20.335 32.334C19.7827 32.334 19.335 32.7817 19.335 33.334C19.335 33.8863 19.7827 34.334 20.335 34.334Z" fill="white"/>
<path fill-rule="evenodd" clip-rule="evenodd" d="M83.3004 10.0002C83.1936 9.94527 83.0867 9.89025 82.9799 9.83521C78.6387 7.5984 74.3154 5.33904 69.9338 6.79554C65.6595 8.21636 64.002 10.7067 61.7424 14.8177C59.2338 19.382 60.5075 22.6622 62.2423 27.142C63.7111 30.9352 64.1141 35.6145 68.0961 37.6626C72.7457 40.0542 77.6155 39.6192 82.2056 37.9866C86.1892 36.5698 87.7755 34.7338 89.545 30.7498C91.5236 26.2953 93.2255 24.7791 91.8175 20.4989C90.4568 16.3623 87.5687 12.1957 83.3004 10.0002Z" fill="#FFC041"/>
<path d="M73.4339 33.326C95.7777 33.6299 85.4222 7.09042 70.6103 13.1082C59.0355 17.8108 63.4082 30.6966 71.2309 36.0851C81.4635 43.1338 98.3267 21.9521 80.6457 10.2593C78.551 8.87398 75.8036 8.66349 73.3046 8.65833C58.256 8.6273 55.8628 33.7 69.3681 38.8656C89.4245 46.5369 103.987 15.377 80.7977 6.50032C79.0904 5.84679 77.2007 5.88249 75.4022 5.57357" stroke="white" stroke-width="0.5"/>
<path fill-rule="evenodd" clip-rule="evenodd" d="M73.335 34.334C73.8872 34.334 74.335 33.8863 74.335 33.334C74.335 32.7817 73.8872 32.334 73.335 32.334C72.7827 32.334 72.335 32.7817 72.335 33.334C72.335 33.8863 72.7827 34.334 73.335 34.334Z" fill="white"/>
<path fill-rule="evenodd" clip-rule="evenodd" d="M131.3 10.0002C131.194 9.94527 131.087 9.89025 130.98 9.83521C126.639 7.5984 122.315 5.33904 117.934 6.79554C113.659 8.21636 112.002 10.7067 109.742 14.8177C107.234 19.382 108.508 22.6622 110.242 27.142C111.711 30.9352 112.114 35.6145 116.096 37.6626C120.746 40.0542 125.615 39.6192 130.206 37.9866C134.189 36.5698 135.776 34.7338 137.545 30.7498C139.524 26.2953 141.225 24.7791 139.818 20.4989C138.457 16.3623 135.569 12.1957 131.3 10.0002Z" fill="#05BB00"/>
<path d="M121.434 33.326C143.778 33.6299 133.422 7.09042 118.61 13.1082C107.035 17.8108 111.408 30.6966 119.231 36.0851C129.463 43.1338 146.327 21.9521 128.646 10.2593C126.551 8.87398 123.804 8.66349 121.305 8.65833C106.256 8.6273 103.863 33.7 117.368 38.8656C137.424 46.5369 151.987 15.377 128.798 6.50032C127.09 5.84679 125.201 5.88249 123.402 5.57357" stroke="white" stroke-width="0.5"/>
<path fill-rule="evenodd" clip-rule="evenodd" d="M121.335 34.334C121.887 34.334 122.335 33.8863 122.335 33.334C122.335 32.7817 121.887 32.334 121.335 32.334C120.783 32.334 120.335 32.7817 120.335 33.334C120.335 33.8863 120.783 34.334 121.335 34.334Z" fill="white"/>
<path fill-rule="evenodd" clip-rule="evenodd" d="M179.299 10.0002C179.193 9.94527 179.086 9.89025 178.979 9.83521C174.638 7.5984 170.314 5.33904 165.933 6.79554C161.658 8.21636 160.001 10.7067 157.741 14.8177C155.233 19.382 156.507 22.6622 158.241 27.142C159.71 30.9352 160.113 35.6145 164.095 37.6626C168.745 40.0542 173.614 39.6192 178.205 37.9866C182.188 36.5698 183.775 34.7338 185.544 30.7498C187.523 26.2953 189.225 24.7791 187.817 20.4989C186.456 16.3623 183.568 12.1957 179.299 10.0002Z" fill="#0083BA"/>
<path d="M169.433 33.326C191.777 33.6299 181.421 7.09042 166.609 13.1082C155.035 17.8108 159.407 30.6966 167.23 36.0851C177.463 43.1338 194.326 21.9521 176.645 10.2593C174.55 8.87398 171.803 8.66349 169.304 8.65833C154.255 8.6273 151.862 33.7 165.367 38.8656C185.423 46.5369 199.986 15.377 176.797 6.50032C175.089 5.84679 173.2 5.88249 171.401 5.57357" stroke="white" stroke-width="0.5"/>
<path fill-rule="evenodd" clip-rule="evenodd" d="M169.334 34.334C169.886 34.334 170.334 33.8863 170.334 33.334C170.334 32.7817 169.886 32.334 169.334 32.334C168.782 32.334 168.334 32.7817 168.334 33.334C168.334 33.8863 168.782 34.334 169.334 34.334Z" fill="white"/>
<path fill-rule="evenodd" clip-rule="evenodd" d="M233.403 29.3489C233.454 29.2402 233.506 29.1315 233.557 29.0229C235.641 24.6063 237.748 20.2067 236.139 15.8786C234.57 11.6565 232.024 10.087 227.836 7.97224C223.187 5.62436 219.953 7.01184 215.537 8.90186C211.797 10.5022 207.135 11.0683 205.227 15.1193C202.999 19.8495 203.604 24.7011 205.396 29.2315C206.951 33.1632 208.841 34.6845 212.884 36.3139C217.405 38.1358 218.98 39.7838 223.208 38.2273C227.295 36.723 231.358 33.6912 233.403 29.3489Z" fill="#9217FF"/>
<path d="M228.622 29.6239C236.913 8.87307 208.425 9.02984 208.735 25.0146C208.978 37.5058 222.575 38.0414 230.409 32.6694C240.656 25.6424 226.925 2.30844 209.672 14.6247C207.628 16.0839 206.447 18.5733 205.547 20.9045C200.125 34.9425 222.674 46.162 232.337 35.4048C246.686 19.4298 222.815 -5.33248 206.217 13.1357C204.995 14.4954 204.351 16.2724 203.418 17.8407" stroke="white" stroke-width="0.5"/>
<path fill-rule="evenodd" clip-rule="evenodd" d="M228.334 30.334C228.886 30.334 229.334 29.8863 229.334 29.334C229.334 28.7817 228.886 28.334 228.334 28.334C227.782 28.334 227.334 28.7817 227.334 29.334C227.334 29.8863 227.782 30.334 228.334 30.334Z" fill="white"/>
<path fill-rule="evenodd" clip-rule="evenodd" d="M258.281 12.2446C258.196 12.3293 258.11 12.4139 258.025 12.4984C254.556 15.936 251.071 19.3495 251.102 23.9668C251.133 28.4709 252.989 30.8168 256.201 34.2361C259.766 38.0325 263.28 37.8347 268.076 37.5692C272.138 37.3444 276.712 38.4071 279.891 35.2529C283.602 31.57 284.693 26.8041 284.559 21.9341C284.443 17.7077 283.187 15.6317 279.945 12.7176C276.319 9.45936 275.403 7.37222 270.898 7.38861C266.543 7.40445 261.688 8.86368 258.281 12.2446Z" fill="#FF17E1"/>
<path d="M265.499 13.324C246.39 24.9067 269.235 41.9259 278.608 28.9734C285.932 18.8517 275.395 10.2411 265.906 9.81669C253.493 9.26157 250.416 36.1608 271.607 36.7074C274.117 36.7721 276.559 35.4948 278.681 34.1749C291.459 26.2266 280.202 3.69552 266.012 6.4716C244.938 10.5942 249.1 44.7364 273.47 39.9757C275.264 39.6252 276.848 38.5935 278.537 37.9024" stroke="white" stroke-width="0.5"/>
<path fill-rule="evenodd" clip-rule="evenodd" d="M265.334 14.3359C265.886 14.3359 266.334 13.8882 266.334 13.3359C266.334 12.7837 265.886 12.3359 265.334 12.3359C264.782 12.3359 264.334 12.7837 264.334 13.3359C264.334 13.8882 264.782 14.3359 265.334 14.3359Z" fill="white"/>
</svg>
