<svg width="34" height="35" viewBox="0 0 34 35" fill="none" xmlns="http://www.w3.org/2000/svg">
<path d="M14.8421 24.9769C31.0718 25.2046 23.55 5.31406 12.7911 9.8242C4.38367 13.3486 7.55982 23.0061 13.2419 27.0447C20.6745 32.3275 32.9233 16.4525 20.0805 7.689C18.559 6.65078 16.5634 6.49302 14.7482 6.48916C3.81744 6.46591 2.07911 25.2572 11.8889 29.1286C26.457 34.878 37.0349 11.5246 20.1909 4.87179C18.9508 4.38199 17.5782 4.40875 16.2718 4.17723" stroke="white" stroke-width="0.5"/>
<path fill-rule="evenodd" clip-rule="evenodd" d="M14.7703 25.7336C15.1715 25.7336 15.4967 25.398 15.4967 24.984C15.4967 24.57 15.1715 24.2344 14.7703 24.2344C14.3691 24.2344 14.0439 24.57 14.0439 24.984C14.0439 25.398 14.3691 25.7336 14.7703 25.7336Z" fill="white"/>
</svg>
